<svg width="118" height="119" viewBox="0 0 118 119" fill="none" xmlns="http://www.w3.org/2000/svg">
<path d="M0 108.763V40.8539C0 35.3304 4.47906 30.8513 10.0026 30.8513H29.7868C33.9846 30.8513 37.7205 33.4624 39.1667 37.3992L49.3902 65.1774C52.6038 73.9146 64.9765 73.8945 68.1701 65.1372L78.253 37.4193C79.6991 33.4624 83.4551 30.8312 87.653 30.8312H107.497C113.021 30.8312 117.5 35.3103 117.5 40.8338V108.763C117.5 114.286 113.021 118.765 107.497 118.765H104.685C99.162 118.765 94.6829 114.286 94.6829 108.763V108.562C94.6829 97.2941 78.956 94.6428 75.2402 105.268L72.8701 112.057C71.4641 116.074 67.688 118.765 63.4299 118.765H53.9897C49.7316 118.765 45.9355 116.074 44.5496 112.057L42.2598 105.489C38.5641 94.8436 22.8171 97.4949 22.8171 108.783C22.8171 114.306 18.338 118.786 12.8145 118.786H10.0026C4.47906 118.765 0 114.286 0 108.763Z" fill="#EFCA08"/>
<path d="M0 14.1201V13.3769C0 5.98547 5.98547 0 13.3769 0H104.123C111.515 0 117.5 5.98547 117.5 13.3769V14.1201C117.5 21.5115 111.515 27.497 104.123 27.497H88.0748C82.4709 27.497 77.4697 30.9718 75.5415 36.2342L65.4184 63.5504C63.1487 69.6564 54.5321 69.6363 52.2825 63.5504L42.2197 36.2744C40.2915 31.012 35.2701 27.5171 29.6662 27.5171H13.3769C5.98547 27.497 0 21.5115 0 14.1201Z" fill="#00A6A6"/>
</svg>
